<?xml version="1.0" encoding="UTF-8"?>
<svg version="1.1" xmlns="http://www.w3.org/2000/svg" width="1024" height="1024">
<path d="M0 0 C337.92 0 675.84 0 1024 0 C1024 337.92 1024 675.84 1024 1024 C686.08 1024 348.16 1024 0 1024 C0 686.08 0 348.16 0 0 Z " fill="#BFE6F0" transform="translate(0,0)"/>
<path d="M0 0 C0.9650647 0.00270905 1.93012939 0.00541809 2.92443848 0.00820923 C17.39300535 0.06977569 31.26272247 0.67378016 45.3125 4.4375 C46.02003418 4.61941895 46.72756836 4.80133789 47.45654297 4.98876953 C52.16926288 6.23223418 56.74207087 7.74889659 61.3125 9.4375 C62.08658203 9.72109375 62.86066406 10.0046875 63.65820312 10.296875 C113.44752384 28.78669355 151.72506815 64.22711463 174.19091797 112.2890625 C183.18670443 132.17406115 189.40256818 154.74778808 189.515625 176.640625 C189.52132507 177.51789246 189.52702515 178.39515991 189.53289795 179.29901123 C189.54231034 181.15473238 189.54886691 183.01046995 189.55273438 184.86621094 C189.56232758 187.63768857 189.5933393 190.40838703 189.625 193.1796875 C189.72561132 210.18803133 187.60551501 226.2298037 182.3125 242.4375 C182.10206055 243.11699707 181.89162109 243.79649414 181.67480469 244.49658203 C176.89997103 259.8491409 170.02294411 274.19016454 163.11035156 288.66064453 C160.38290365 294.37787199 157.72385743 300.12678718 155.0625 305.875 C154.53914062 307.00268799 154.01578125 308.13037598 153.4765625 309.29223633 C148.86562784 319.22976113 144.27637456 329.17727413 139.6875 339.125 C127.25429664 366.07756373 114.79045928 393.01585894 102.22851562 419.90869141 C92.83183339 440.02603414 83.50749941 460.17628805 74.20974731 480.33947754 C68.04636274 493.70326523 61.84121334 507.04693278 55.609375 520.37890625 C50.68486189 530.91544566 45.79362615 541.46742887 40.89941406 552.01806641 C39.34832112 555.36031375 37.79556006 558.70178037 36.2421875 562.04296875 C29.54028595 576.4612508 22.86983123 590.89373121 16.21304321 605.33288574 C10.54191898 617.63224188 4.83953024 629.9164027 -0.9128418 642.17797852 C-3.46325996 647.62467861 -5.98816662 653.07815849 -8.421875 658.578125 C-18.10183348 680.4532049 -30.00862768 700.12324206 -46.6875 717.4375 C-47.19506836 717.97084961 -47.70263672 718.50419922 -48.22558594 719.05371094 C-81.56256966 753.94758824 -128.16767809 775.08050802 -176.45703125 776.76953125 C-199.80774299 777.24447068 -221.50869458 774.77320949 -243.6875 767.4375 C-244.69973633 767.10758057 -244.69973633 767.10758057 -245.73242188 766.77099609 C-255.20896824 763.62103864 -264.28376451 759.48370127 -273.375 755.375 C-274.51090576 754.8682373 -275.64681152 754.36147461 -276.81713867 753.83935547 C-282.36088936 751.28709427 -286.61798339 749.10017494 -290.6875 744.4375 C-292.73272675 742.81847384 -294.78186852 741.24052908 -296.875 739.6875 C-301.9990127 735.82099419 -306.82533021 731.74663084 -311.546875 727.390625 C-313.28091258 725.80847392 -315.03449382 724.32803119 -316.875 722.875 C-320.55446619 719.68612931 -323.58317255 716.18112309 -326.6875 712.4375 C-327.12368652 711.91897461 -327.55987305 711.40044922 -328.00927734 710.86621094 C-339.73748336 696.87508555 -349.01522378 681.99043594 -356.6875 665.4375 C-357.19410156 664.36556396 -357.19410156 664.36556396 -357.7109375 663.27197266 C-377.83500355 620.25299876 -379.00118006 568.99282635 -363.34570312 524.3984375 C-357.86361945 509.54375914 -350.699184 495.34592789 -343.86286926 481.08183289 C-340.60766264 474.28614791 -337.41493456 467.46326587 -334.25 460.625 C-333.74178711 459.52841064 -333.23357422 458.43182129 -332.70996094 457.30200195 C-328.82563719 448.91289177 -324.95576925 440.51710394 -321.08374023 432.12231445 C-320.6996701 431.28963043 -320.31559998 430.45694641 -319.91989136 429.59902954 C-319.13949006 427.90698272 -318.35915567 426.21490505 -317.57888794 424.52279663 C-312.08958871 412.61963784 -306.56781206 400.7324028 -301.01367188 388.859375 C-295.8317704 377.77478054 -290.71151743 366.6619857 -285.59188843 355.54852295 C-280.13663242 343.7090889 -274.62895298 331.89579236 -269.07687378 320.10150146 C-264.08368845 309.48765246 -259.21405506 298.82151941 -254.38394165 288.13262939 C-249.0840606 276.41333795 -243.62188317 264.77633347 -238.1050415 253.15783691 C-233.02925705 242.4629559 -228.0576313 231.7275151 -223.1875 220.9375 C-217.20783747 207.69095719 -211.0471155 194.53673537 -204.82128906 181.40429688 C-200.6490404 172.60191762 -196.50981429 163.7867025 -192.4375 154.9375 C-191.96707275 153.91551514 -191.49664551 152.89353027 -191.01196289 151.84057617 C-190.06500754 149.78218311 -189.11831237 147.72367034 -188.171875 145.66503906 C-171.85432052 110.1850933 -171.85432052 110.1850933 -165.6875 98.4375 C-164.77677734 96.70113281 -164.77677734 96.70113281 -163.84765625 94.9296875 C-156.11393995 80.79074604 -146.21350126 68.37391135 -135.0234375 56.82470703 C-133.84115014 55.5970468 -132.68417882 54.34511589 -131.53125 53.08984375 C-109.8023653 30.06558323 -78.82593696 14.32558747 -48.6875 5.6875 C-48.0495752 5.50098877 -47.41165039 5.31447754 -46.75439453 5.12231445 C-31.27433454 0.91950645 -15.96202399 -0.10525279 0 0 Z " fill="#76D8FC" transform="translate(603.6875,123.5625)"/>
<path d="M0 0 C1.23266602 0.00821777 2.46533203 0.01643555 3.73535156 0.02490234 C44.03442333 0.51868544 84.55303122 15.38157847 114.0625 43.24609375 C116.06255666 45.13217659 118.13148998 46.87474661 120.25 48.625 C125.21063919 52.95808845 129.15833719 58.06374428 133.1875 63.25 C133.93128906 64.18972656 134.67507813 65.12945312 135.44140625 66.09765625 C162.79761084 101.44663018 174.6343456 145.78637051 169.09716797 190.09838867 C168.81419713 192.15260776 168.50811802 194.20134894 168.1875 196.25 C168.01605469 197.36375 167.84460938 198.4775 167.66796875 199.625 C163.68300311 221.01526717 154.54293571 240.56140605 145.17041016 260.003479 C141.9154235 266.77289343 138.81561161 273.60892399 135.73220825 280.45779419 C129.83517344 293.55211919 123.76483346 306.55710996 117.6050415 319.52966309 C112.52925919 330.22453958 107.55743696 340.95990006 102.6875 351.75 C97.13055527 364.06227212 91.41622654 376.29242049 85.62161255 388.49450684 C77.94937389 404.65871587 70.53576898 420.93635677 63.1875 437.25 C58.38326954 436.69050393 54.85831556 435.29598782 50.578125 433.0703125 C49.14684098 432.33556794 47.71516888 431.60157909 46.28320312 430.86816406 C45.48052002 430.45425415 44.67783691 430.04034424 43.85083008 429.6138916 C38.64554345 426.94826379 33.4051571 424.35228575 28.171875 421.7421875 C25.70559146 420.50979666 23.23976596 419.27649053 20.77392578 418.04321289 C19.48326421 417.39786163 18.19259435 416.75252696 16.9019165 416.10720825 C-15.66955566 399.82147217 -48.24102783 383.53573608 -80.8125 367.25 C-80.01768841 362.81199153 -78.48363056 359.08235184 -76.5234375 355.046875 C-76.18853302 354.34512146 -75.85362854 353.64336792 -75.50857544 352.92034912 C-74.78495613 351.4048637 -74.05894873 349.89051671 -73.33081055 348.37719727 C-71.37198001 344.30435231 -69.43219537 340.22246133 -67.4921875 336.140625 C-66.89775848 334.89104004 -66.89775848 334.89104004 -66.2913208 333.61621094 C-62.53580542 325.70362166 -58.91105101 317.73488995 -55.3125 309.75 C-50.03234542 298.04825113 -44.62412428 286.41294274 -39.125 274.8125 C-32.84148866 261.55553204 -26.63119846 248.26868397 -20.50732422 234.93701172 C-16.99242218 227.28748807 -13.46427032 219.64405682 -9.9375 212 C-9.55092224 211.16200867 -9.16434448 210.32401733 -8.76605225 209.46063232 C-3.70123938 198.48338895 1.38215834 187.51512196 6.5 176.5625 C6.78142853 175.96016541 7.06285706 175.35783081 7.35281372 174.73724365 C8.74418967 171.75949952 10.13577138 168.78185156 11.52734375 165.80419922 C19.53003756 148.67137327 27.48703358 131.52133036 35.1875 114.25 C34.28773438 113.96382813 33.38796875 113.67765625 32.4609375 113.3828125 C29.7607433 112.44837775 27.34163313 111.43317231 24.8125 110.125 C24.12414062 109.77179688 23.43578125 109.41859375 22.7265625 109.0546875 C22.21867187 108.78914063 21.71078125 108.52359375 21.1875 108.25 C20.91977783 109.10384277 20.65205566 109.95768555 20.3762207 110.83740234 C19.16884639 114.30355108 17.73766317 117.53448133 16.16796875 120.8515625 C15.87331223 121.4769693 15.5786557 122.1023761 15.27507019 122.74673462 C14.64152961 124.09051465 14.00647992 125.43358404 13.37005615 126.77600098 C12.01122729 129.64235225 10.65984247 132.51219257 9.3079834 135.38183594 C8.61345178 136.85597053 7.91854374 138.32992783 7.2232666 139.80371094 C3.97553882 146.68979587 0.76392606 153.59225642 -2.4375 160.5 C-2.96512939 161.63775879 -3.49275879 162.77551758 -4.03637695 163.94775391 C-5.09768317 166.2365657 -6.15880079 168.52546496 -7.21972656 170.81445312 C-9.91474474 176.62749663 -12.61388558 182.43862537 -15.3125 188.25 C-16.40234865 190.59765398 -17.49219241 192.94531022 -18.58203125 195.29296875 C-20.6823911 199.81696616 -22.78399651 204.34038142 -24.88671875 208.86328125 C-31.09102737 222.21185615 -37.27205354 235.57094023 -43.4375 248.9375 C-51.65617609 266.75535002 -59.90115008 284.56090856 -68.15644836 302.36181641 C-70.69528588 307.83734895 -73.23075745 313.31442884 -75.76402283 318.7925415 C-77.50599657 322.55941854 -79.24884509 326.32589055 -80.99172974 330.09234619 C-81.82099798 331.88507487 -82.64984519 333.67799837 -83.47824097 335.47113037 C-84.62891347 337.96173827 -85.78110009 340.45164066 -86.93359375 342.94140625 C-87.26818604 343.66668015 -87.60277832 344.39195404 -87.94750977 345.13920593 C-90.14849119 349.88902623 -92.45283705 354.57689059 -94.8125 359.25 C-99.00370226 357.93998478 -102.84861724 356.35577005 -106.77304077 354.38998413 C-107.94244202 353.80665817 -109.11184326 353.22333221 -110.31668091 352.62232971 C-111.59836507 351.97794921 -112.88001051 351.33349168 -114.16162109 350.68896484 C-115.5219228 350.00853171 -116.88240109 349.32845151 -118.24304199 348.6486969 C-121.92618713 346.80741071 -125.60684841 344.96120913 -129.28707838 343.11410475 C-133.13734838 341.18270964 -136.98989119 339.2558589 -140.8421936 337.32852173 C-148.13220888 333.68040861 -155.4201756 330.02822242 -162.70741236 326.37456286 C-171.0056899 322.21423864 -179.30624518 318.05846873 -187.60699344 313.90307689 C-204.67803223 305.35711084 -221.74620702 296.80543916 -238.8125 288.25 C-238.02774797 283.88885227 -236.55423338 280.21026459 -234.63671875 276.23828125 C-234.31589828 275.56200684 -233.99507782 274.88573242 -233.66453552 274.18896484 C-232.97450943 272.73588187 -232.28198872 271.28398138 -231.58721924 269.8331604 C-230.10960985 266.74716908 -228.64444067 263.65532668 -227.17852783 260.56376648 C-226.43626152 258.9986258 -225.69338077 257.43377638 -224.94989014 255.86921692 C-221.90218111 249.45356241 -218.90464973 243.01582671 -215.9375 236.5625 C-215.47287354 235.55324463 -215.00824707 234.54398926 -214.52954102 233.50415039 C-213.52713586 231.3260169 -212.52511892 229.1477047 -211.5234375 226.96923828 C-208.00095858 219.30998558 -204.46905564 211.65507059 -200.9375 204 C-200.5493512 203.15853424 -200.16120239 202.31706848 -199.7612915 201.45010376 C-194.25322348 189.51128262 -188.71469047 177.58732691 -183.14111328 165.67895508 C-179.49561801 157.88451022 -175.88610842 150.07407584 -172.29284668 142.25541687 C-142.18472979 76.75195257 -142.18472979 76.75195257 -126.8125 59.25 C-126.11769531 58.43402344 -125.42289062 57.61804688 -124.70703125 56.77734375 C-99.35286985 27.636222 -64.7184507 9.02765386 -26.8125 2.25 C-25.84207764 2.07194824 -24.87165527 1.89389648 -23.87182617 1.71044922 C-15.86948223 0.34760198 -8.10951413 -0.06621386 0 0 Z " fill="#E2E2E2" transform="translate(602.8125,143.75)"/>
<path d="M0 0 C0.9650647 0.00270905 1.93012939 0.00541809 2.92443848 0.00820923 C17.39300535 0.06977569 31.26272247 0.67378016 45.3125 4.4375 C46.02003418 4.61941895 46.72756836 4.80133789 47.45654297 4.98876953 C52.16926288 6.23223418 56.74207087 7.74889659 61.3125 9.4375 C62.08658203 9.72109375 62.86066406 10.0046875 63.65820312 10.296875 C113.44752384 28.78669355 151.72506815 64.22711463 174.19091797 112.2890625 C183.18670443 132.17406115 189.40256818 154.74778808 189.515625 176.640625 C189.52132507 177.51789246 189.52702515 178.39515991 189.53289795 179.29901123 C189.54231034 181.15473238 189.54886691 183.01046995 189.55273438 184.86621094 C189.56232758 187.63768857 189.5933393 190.40838703 189.625 193.1796875 C189.72561132 210.18803133 187.60551501 226.2298037 182.3125 242.4375 C182.10206055 243.11699707 181.89162109 243.79649414 181.67480469 244.49658203 C176.89997103 259.8491409 170.02294411 274.19016454 163.11035156 288.66064453 C160.38290365 294.37787199 157.72385743 300.12678718 155.0625 305.875 C154.53914062 307.00268799 154.01578125 308.13037598 153.4765625 309.29223633 C148.86562784 319.22976113 144.27637456 329.17727413 139.6875 339.125 C127.25429664 366.07756373 114.79045928 393.01585894 102.22851562 419.90869141 C92.83183339 440.02603414 83.50749941 460.17628805 74.20974731 480.33947754 C68.04636274 493.70326523 61.84121334 507.04693278 55.609375 520.37890625 C50.68486189 530.91544566 45.79362615 541.46742887 40.89941406 552.01806641 C39.34832112 555.36031375 37.79556006 558.70178037 36.2421875 562.04296875 C29.54028595 576.4612508 22.86983123 590.89373121 16.21304321 605.33288574 C10.54191898 617.63224188 4.83953024 629.9164027 -0.9128418 642.17797852 C-3.46325996 647.62467861 -5.98816662 653.07815849 -8.421875 658.578125 C-18.10183348 680.4532049 -30.00862768 700.12324206 -46.6875 717.4375 C-47.19506836 717.97084961 -47.70263672 718.50419922 -48.22558594 719.05371094 C-81.56256966 753.94758824 -128.16767809 775.08050802 -176.45703125 776.76953125 C-199.80774299 777.24447068 -221.50869458 774.77320949 -243.6875 767.4375 C-244.69973633 767.10758057 -244.69973633 767.10758057 -245.73242188 766.77099609 C-255.20896824 763.62103864 -264.28376451 759.48370127 -273.375 755.375 C-274.51090576 754.8682373 -275.64681152 754.36147461 -276.81713867 753.83935547 C-282.36088936 751.28709427 -286.61798339 749.10017494 -290.6875 744.4375 C-292.73272675 742.81847384 -294.78186852 741.24052908 -296.875 739.6875 C-301.9990127 735.82099419 -306.82533021 731.74663084 -311.546875 727.390625 C-313.28091258 725.80847392 -315.03449382 724.32803119 -316.875 722.875 C-320.55446619 719.68612931 -323.58317255 716.18112309 -326.6875 712.4375 C-327.12368652 711.91897461 -327.55987305 711.40044922 -328.00927734 710.86621094 C-339.73748336 696.87508555 -349.01522378 681.99043594 -356.6875 665.4375 C-357.19410156 664.36556396 -357.19410156 664.36556396 -357.7109375 663.27197266 C-377.83500355 620.25299876 -379.00118006 568.99282635 -363.34570312 524.3984375 C-357.86361945 509.54375914 -350.699184 495.34592789 -343.86286926 481.08183289 C-340.60766264 474.28614791 -337.41493456 467.46326587 -334.25 460.625 C-333.74178711 459.52841064 -333.23357422 458.43182129 -332.70996094 457.30200195 C-328.82563719 448.91289177 -324.95576925 440.51710394 -321.08374023 432.12231445 C-320.6996701 431.28963043 -320.31559998 430.45694641 -319.91989136 429.59902954 C-319.13949006 427.90698272 -318.35915567 426.21490505 -317.57888794 424.52279663 C-312.08958871 412.61963784 -306.56781206 400.7324028 -301.01367188 388.859375 C-295.8317704 377.77478054 -290.71151743 366.6619857 -285.59188843 355.54852295 C-280.13663242 343.7090889 -274.62895298 331.89579236 -269.07687378 320.10150146 C-264.08368845 309.48765246 -259.21405506 298.82151941 -254.38394165 288.13262939 C-249.0840606 276.41333795 -243.62188317 264.77633347 -238.1050415 253.15783691 C-233.02925705 242.4629559 -228.0576313 231.7275151 -223.1875 220.9375 C-217.20783747 207.69095719 -211.0471155 194.53673537 -204.82128906 181.40429688 C-200.6490404 172.60191762 -196.50981429 163.7867025 -192.4375 154.9375 C-191.96707275 153.91551514 -191.49664551 152.89353027 -191.01196289 151.84057617 C-190.06500754 149.78218311 -189.11831237 147.72367034 -188.171875 145.66503906 C-171.85432052 110.1850933 -171.85432052 110.1850933 -165.6875 98.4375 C-164.77677734 96.70113281 -164.77677734 96.70113281 -163.84765625 94.9296875 C-156.11393995 80.79074604 -146.21350126 68.37391135 -135.0234375 56.82470703 C-133.84115014 55.5970468 -132.68417882 54.34511589 -131.53125 53.08984375 C-109.8023653 30.06558323 -78.82593696 14.32558747 -48.6875 5.6875 C-48.0495752 5.50098877 -47.41165039 5.31447754 -46.75439453 5.12231445 C-31.27433454 0.91950645 -15.96202399 -0.10525279 0 0 Z M-125.6875 76.5625 C-146.77289558 100.53538606 -158.83684176 130.66716646 -171.9967804 159.39105225 C-175.97338894 168.070451 -179.98732187 176.73232823 -184.00640869 185.39212036 C-185.97850197 189.64219488 -187.9481515 193.8934015 -189.91796875 198.14453125 C-190.30883667 198.98795578 -190.69970459 199.83138031 -191.10241699 200.70036316 C-193.52850272 205.93555979 -195.95365672 211.17118717 -198.3782196 216.40708923 C-213.15232138 248.31192821 -213.15232138 248.31192821 -220.26248169 263.52856445 C-221.65670691 266.51325124 -223.04886358 269.49890291 -224.44140625 272.484375 C-226.39995522 276.68304777 -228.36359869 280.87925534 -230.33296204 285.07286072 C-231.1981211 286.91747056 -232.06067149 288.76327346 -232.92211914 290.60961914 C-233.98843293 292.89475864 -235.05900264 295.17791871 -236.13452148 297.45874023 C-236.60317627 298.46622314 -237.07183105 299.47370605 -237.5546875 300.51171875 C-237.96831543 301.39432373 -238.38194336 302.27692871 -238.80810547 303.1862793 C-239.86942732 305.50041383 -239.86942732 305.50041383 -239.6875 308.4375 C-221.20996724 317.69959895 -202.73016234 326.95714977 -184.24762154 336.2092514 C-175.6664338 340.50500746 -167.08600354 344.80226384 -158.50732422 349.10302734 C-151.03249478 352.85039123 -143.55627605 356.59496596 -136.07835662 360.33616018 C-132.11679662 362.31824689 -128.15595938 364.30174887 -124.19678116 366.28858948 C-120.47381155 368.15683816 -116.74900246 370.02136497 -113.02272034 371.88299751 C-111.65218319 372.56854225 -110.28233621 373.25546869 -108.91321945 373.94384575 C-107.05025494 374.88027097 -105.18491786 375.8117871 -103.31887817 376.74206543 C-102.27356493 377.26564384 -101.22825169 377.78922226 -100.15126228 378.32866669 C-97.83382995 379.57430262 -97.83382995 379.57430262 -95.6875 379.4375 C-89.57543943 367.53695853 -83.93959802 355.4359617 -78.36585999 343.27558899 C-75.01172196 335.95855649 -71.63779816 328.65066396 -68.26412964 321.34262085 C-67.11346333 318.85000888 -65.96309626 316.35725894 -64.81274414 313.86450195 C-56.92074349 296.76559554 -49.0006713 279.67972232 -41.07861328 262.59472656 C-37.90451654 255.74911813 -34.73202129 248.90276773 -31.55957031 242.05639648 C-29.97971017 238.64695296 -28.39962112 235.23761568 -26.81933594 231.82836914 C-23.2264967 224.07698576 -19.63479071 216.32508597 -16.04821777 208.57080078 C-7.37560157 189.82060977 1.32417151 171.08463273 10.15112305 152.40649414 C11.87736629 148.75285505 13.59726441 145.0963217 15.3125 141.4375 C16.08062012 139.7992627 16.08062012 139.7992627 16.86425781 138.12792969 C17.32413086 137.13438477 17.78400391 136.14083984 18.2578125 135.1171875 C18.65758301 134.25593262 19.05735352 133.39467773 19.46923828 132.50732422 C20.43826563 130.50130395 20.43826563 130.50130395 20.3125 128.4375 C21.15554688 128.870625 21.99859375 129.30375 22.8671875 129.75 C23.96289062 130.306875 25.05859375 130.86375 26.1875 131.4375 C27.27804687 131.994375 28.36859375 132.55125 29.4921875 133.125 C32.09625082 134.57814094 32.09625082 134.57814094 34.3125 134.4375 C18.01171875 169.546875 18.01171875 169.546875 16.41015625 172.99633789 C15.33327611 175.31581002 14.25645443 177.63530929 13.1796875 179.95483398 C10.53389241 185.65410708 7.88722598 191.35297131 5.23828125 197.05078125 C-0.68132725 209.78705022 -6.57961065 222.53286861 -12.46051025 235.28704834 C-18.28170508 247.91158728 -24.11423766 260.53041579 -30 273.125 C-30.28451019 273.73383026 -30.56902039 274.34266052 -30.8621521 274.96994019 C-31.7114551 276.78726661 -32.56080545 278.60457091 -33.41015625 280.421875 C-40.31646301 295.1992953 -47.18029816 309.99641972 -54.01171875 324.80859375 C-54.38772217 325.62375961 -54.76372559 326.43892548 -55.15112305 327.27879333 C-57.07668643 331.45379965 -59.00121204 335.62928036 -60.92431641 339.80541992 C-64.56913153 347.715437 -68.23160953 355.61608731 -71.94921875 363.4921875 C-72.6101181 364.89534002 -73.27100706 366.29849744 -73.93188477 367.70166016 C-75.1564608 370.30077475 -76.38846668 372.89618634 -77.62475586 375.48974609 C-78.16366455 376.63266113 -78.70257324 377.77557617 -79.2578125 378.953125 C-79.72977051 379.94602539 -80.20172852 380.93892578 -80.68798828 381.96191406 C-81.87469221 384.45617895 -81.87469221 384.45617895 -81.6875 387.4375 C-81.02673273 387.76788363 -80.36596546 388.09826727 -79.68517494 388.43866253 C-39.06523259 408.7486337 1.55470975 429.05860488 42.1746521 449.36857605 C43.73597429 450.14536996 43.73597429 450.14536996 45.32883835 450.93785667 C47.29516942 451.9261709 49.25338123 452.93083233 51.20244217 453.95278358 C52.08580624 454.41251249 52.9691703 454.8722414 53.87930298 455.34590149 C54.6430958 455.75100102 55.40688862 456.15610056 56.19382668 456.57347584 C58.54846039 457.68924639 58.54846039 457.68924639 62.3125 457.4375 C69.26520734 442.49048823 76.19506109 427.53318897 83.097229 412.56277466 C89.35940399 398.9805823 95.64722535 385.41125352 101.98413086 371.86376953 C107.18829986 360.73072087 112.3335911 349.57071608 117.47750854 338.409729 C121.86109973 328.89952211 126.25445547 319.39429673 130.69262695 309.90942383 C132.0932695 306.91484152 133.49007006 303.91850851 134.88529968 300.92140198 C135.16549454 300.31956589 135.44568939 299.7177298 135.734375 299.09765625 C136.01630203 298.49199326 136.29822906 297.88633026 136.58869934 297.26231384 C138.18740522 293.83315099 139.79749243 290.40970676 141.41992188 286.99169922 C158.93735973 250.56410185 158.93735973 250.56410185 168.3125 211.4375 C168.44011719 210.44492187 168.56773437 209.45234375 168.69921875 208.4296875 C173.18567193 163.79821818 161.14180248 119.82295895 133.3125 84.4375 C131.06313117 81.78383285 128.76203408 79.20910016 126.38671875 76.66796875 C124.48769913 74.62589681 122.71412345 72.52298418 120.9375 70.375 C116.60167197 65.41266471 111.48367201 61.48948746 106.3125 57.4375 C105.33410156 56.63183594 104.35570312 55.82617188 103.34765625 54.99609375 C82.76795932 38.4129584 58.80564165 29.38362151 33.3125 23.4375 C32.17796387 23.15471191 32.17796387 23.15471191 31.02050781 22.86621094 C-26.25474857 9.06218776 -86.61894406 35.30259877 -125.6875 76.5625 Z M-247.6875 322.4375 C-247.98293701 323.07848633 -248.27837402 323.71947266 -248.58276367 324.37988281 C-254.30964014 336.80257974 -260.04641411 349.22044819 -265.8125 361.625 C-270.71447164 372.17098485 -275.5922239 382.72795552 -280.46151733 393.2890625 C-287.39969896 408.33704578 -294.37374949 423.36747738 -301.390625 438.37890625 C-305.22933422 446.59224837 -309.04842822 454.81465243 -312.86230469 463.03955078 C-315.55728023 468.85135975 -318.25712765 474.66078035 -320.96875 480.46484375 C-324.22828326 487.44658493 -327.46694587 494.43769434 -330.6875 501.4375 C-331.23390137 502.6239209 -331.78030273 503.8103418 -332.34326172 505.03271484 C-341.36710867 524.70923311 -347.94450949 543.1170372 -351.6875 564.4375 C-351.8834375 565.50613281 -352.079375 566.57476563 -352.28125 567.67578125 C-354.76522534 590.67643749 -352.61718752 614.37995226 -345.6875 636.4375 C-345.37256592 637.44176025 -345.37256592 637.44176025 -345.05126953 638.46630859 C-341.58843195 649.32256845 -337.14649637 659.44194154 -331.6875 669.4375 C-331.34879883 670.06366211 -331.01009766 670.68982422 -330.66113281 671.33496094 C-309.09160821 710.68449252 -271.2156447 737.84693084 -228.6875 750.4375 C-214.67625459 754.48046451 -200.83092844 755.91528906 -186.3125 755.9375 C-185.51058228 755.93884949 -184.70866455 755.94019897 -183.88244629 755.94158936 C-146.95146151 755.84399451 -110.84951016 744.52979599 -81.6875 721.4375 C-80.81222656 720.76460937 -79.93695312 720.09171875 -79.03515625 719.3984375 C-48.03910625 694.93957452 -32.30436034 661.96018479 -16.22460938 626.78955078 C-13.6919412 621.26643546 -11.12599249 615.75885807 -8.5625 610.25 C-3.66005254 599.70423759 1.21722479 589.14704256 6.08651733 578.5859375 C11.90707443 565.96193158 17.73954066 553.34389608 23.625 540.75 C23.90718384 540.14615479 24.18936768 539.54230957 24.48010254 538.92016602 C25.32264258 537.11733627 26.16522737 535.31452743 27.0078125 533.51171875 C31.93957401 522.95926389 36.84837121 512.39623696 41.74121094 501.82568359 C43.34527914 498.36681806 44.95757364 494.91186118 46.5703125 491.45703125 C47.58882041 489.26315022 48.60706154 487.06914531 49.625 484.875 C50.33692505 483.35737061 50.33692505 483.35737061 51.06323242 481.80908203 C51.49224854 480.8807959 51.92126465 479.95250977 52.36328125 478.99609375 C52.93042847 477.77877563 52.93042847 477.77877563 53.5090332 476.53686523 C54.49121783 474.34517514 54.49121783 474.34517514 54.3125 471.4375 C50.74748277 469.64216474 47.18086699 467.85004213 43.61303711 466.06030273 C41.83697052 465.16866191 40.06201091 464.27481711 38.28710938 463.38085938 C31.78784631 460.11751996 25.25923408 456.92494839 18.68918967 453.80632812 C5.02974524 447.31851964 -8.50179662 440.58868595 -22.01660156 433.8059082 C-24.45822679 432.58219018 -26.90018021 431.3591277 -29.34213257 430.13606262 C-34.54741391 427.52862399 -39.75201218 424.91982652 -44.95618439 422.31017494 C-53.18211386 418.18539951 -61.41020434 414.06494545 -69.63861084 409.94511414 C-72.46581983 408.52951045 -75.2930147 407.11387858 -78.12020493 405.69823742 C-78.82608079 405.34478987 -79.53195666 404.99134232 -80.2592227 404.62718425 C-88.24479091 400.6285607 -96.22991406 396.62904883 -104.21484375 392.62915039 C-104.94272275 392.26453468 -105.67060174 391.89991896 -106.42053768 391.52425428 C-118.27779332 385.58447927 -130.13352485 379.64166703 -141.9888995 373.69813881 C-154.19724083 367.57779597 -166.40787001 361.4620347 -178.62047935 355.35021275 C-186.13792188 351.58787976 -193.65344665 347.82176722 -201.16655025 344.05077692 C-206.29765528 341.47575381 -211.43091049 338.90505348 -216.56590763 336.33780072 C-219.52892704 334.85625941 -222.49058136 333.3720951 -225.4503212 331.88401031 C-228.65297912 330.27415899 -231.8592033 328.67164924 -235.06646729 327.07099915 C-236.00699518 326.59602487 -236.94752308 326.1210506 -237.91655183 325.63168317 C-238.772223 325.20652581 -239.62789418 324.78136844 -240.50949478 324.34332752 C-241.24925308 323.97260775 -241.98901139 323.60188799 -242.75118661 323.21993428 C-244.80301195 322.25017347 -244.80301195 322.25017347 -247.6875 322.4375 Z " fill="#073852" transform="translate(603.6875,123.5625)"/>
<path d="M0 0 C1.23266602 0.00821777 2.46533203 0.01643555 3.73535156 0.02490234 C44.03442333 0.51868544 84.55303122 15.38157847 114.0625 43.24609375 C116.06255666 45.13217659 118.13148998 46.87474661 120.25 48.625 C125.21063919 52.95808845 129.15833719 58.06374428 133.1875 63.25 C133.93128906 64.18972656 134.67507813 65.12945312 135.44140625 66.09765625 C162.79761084 101.44663018 174.6343456 145.78637051 169.09716797 190.09838867 C168.81419713 192.15260776 168.50811802 194.20134894 168.1875 196.25 C168.01605469 197.36375 167.84460938 198.4775 167.66796875 199.625 C163.68300311 221.01526717 154.54293571 240.56140605 145.17041016 260.003479 C141.9154235 266.77289343 138.81561161 273.60892399 135.73220825 280.45779419 C129.83517344 293.55211919 123.76483346 306.55710996 117.6050415 319.52966309 C112.52925919 330.22453958 107.55743696 340.95990006 102.6875 351.75 C97.13055527 364.06227212 91.41622654 376.29242049 85.62161255 388.49450684 C77.94937389 404.65871587 70.53576898 420.93635677 63.1875 437.25 C58.18983357 436.58504438 55.26688569 435.26097515 51.1875 432.25 C51.8475 431.92 52.5075 431.59 53.1875 431.25 C53.88747794 429.26141374 54.54728654 427.2586242 55.1875 425.25 C56.21121889 422.94761833 57.27050577 420.66088169 58.35546875 418.38671875 C58.822341 417.40293495 58.822341 417.40293495 59.29864502 416.39927673 C59.97012216 414.98447898 60.64298851 413.57033988 61.31710815 412.15679932 C63.14189876 408.32866077 64.95454682 404.49479752 66.765625 400.66015625 C67.1375145 399.8728009 67.50940399 399.08544556 67.89256287 398.27423096 C71.55080213 390.51073553 75.09553852 382.69765895 78.625 374.875 C84.6253178 361.58703949 90.80783191 348.39148736 97.0534668 335.21728516 C102.69752114 323.30983346 108.23932724 311.35847541 113.74267578 299.38525391 C115.7452053 295.03978516 117.76296459 290.7014668 119.78173828 286.36352539 C121.67873316 282.28437597 123.56839996 278.20184796 125.4586792 274.11958313 C127.42964477 269.86896856 129.41974078 265.62762636 131.41571045 261.38870239 C149.93605379 222.44859265 149.93605379 222.44859265 157.1875 180.25 C157.21328125 179.52006836 157.2390625 178.79013672 157.265625 178.03808594 C158.63039467 135.201378 144.6252253 95.15899771 115.4453125 63.640625 C114.70023438 62.85171875 113.95515625 62.0628125 113.1875 61.25 C112.44242188 60.44046875 111.69734375 59.6309375 110.9296875 58.796875 C85.17593396 31.76818317 45.8271058 15.31068808 8.6953125 14 C-35.3517321 13.16075084 -75.97119484 28.1775916 -108.07421875 58.54296875 C-125.68159743 75.9494073 -136.80189248 96.40637333 -147.125 118.625 C-147.87275181 120.22262647 -148.6209692 121.8200351 -149.36962891 123.41723633 C-151.5262966 128.02397152 -153.67141025 132.6360075 -155.8125 137.25 C-156.35277832 138.41354004 -156.89305664 139.57708008 -157.44970703 140.77587891 C-159.81814023 145.8841245 -162.17577424 150.99725312 -164.52734375 156.11328125 C-168.74821731 165.29311194 -173.00057313 174.45836139 -177.25 183.625 C-177.6617749 184.51338562 -178.0735498 185.40177124 -178.49780273 186.31707764 C-183.55778659 197.23372684 -188.62048583 208.14911215 -193.6875 219.0625 C-194.20119141 220.16924072 -194.71488281 221.27598145 -195.24414062 222.41625977 C-197.82603947 227.97762055 -200.41198663 233.53705191 -203.00390625 239.09375 C-203.53910889 240.24278809 -204.07431152 241.39182617 -204.62573242 242.57568359 C-205.69859582 244.87880024 -206.7729493 247.18122342 -207.84887695 249.48291016 C-210.84279934 255.9132914 -213.75751504 262.36948835 -216.6015625 268.8671875 C-217.55081656 271.02154731 -218.5009531 273.17551627 -219.45120239 275.32943726 C-220.35986471 277.40296197 -221.2521197 279.48305763 -222.14428711 281.5637207 C-222.700874 282.82798311 -223.25820807 284.09191693 -223.81640625 285.35546875 C-224.29924072 286.47074951 -224.7820752 287.58603027 -225.27954102 288.73510742 C-226.8125 291.25 -226.8125 291.25 -228.8659668 292.16699219 C-231.4248623 292.27611353 -232.83092512 291.53986618 -235.0625 290.3125 C-235.76890625 289.93222656 -236.4753125 289.55195313 -237.203125 289.16015625 C-237.73421875 288.85980469 -238.2653125 288.55945313 -238.8125 288.25 C-238.17242621 283.87313913 -236.54200634 280.18493723 -234.63671875 276.23828125 C-234.31589828 275.56200684 -233.99507782 274.88573242 -233.66453552 274.18896484 C-232.97450943 272.73588187 -232.28198872 271.28398138 -231.58721924 269.8331604 C-230.10960985 266.74716908 -228.64444067 263.65532668 -227.17852783 260.56376648 C-226.43626152 258.9986258 -225.69338077 257.43377638 -224.94989014 255.86921692 C-221.90218111 249.45356241 -218.90464973 243.01582671 -215.9375 236.5625 C-215.47287354 235.55324463 -215.00824707 234.54398926 -214.52954102 233.50415039 C-213.52713586 231.3260169 -212.52511892 229.1477047 -211.5234375 226.96923828 C-208.00095858 219.30998558 -204.46905564 211.65507059 -200.9375 204 C-200.5493512 203.15853424 -200.16120239 202.31706848 -199.7612915 201.45010376 C-194.25322348 189.51128262 -188.71469047 177.58732691 -183.14111328 165.67895508 C-179.49561801 157.88451022 -175.88610842 150.07407584 -172.29284668 142.25541687 C-142.18472979 76.75195257 -142.18472979 76.75195257 -126.8125 59.25 C-126.11769531 58.43402344 -125.42289062 57.61804688 -124.70703125 56.77734375 C-99.35286985 27.636222 -64.7184507 9.02765386 -26.8125 2.25 C-25.84207764 2.07194824 -24.87165527 1.89389648 -23.87182617 1.71044922 C-15.86948223 0.34760198 -8.10951413 -0.06621386 0 0 Z " fill="#F5FAFC" transform="translate(602.8125,143.75)"/>
<path d="M0 0 C3.95820859 0.56545837 6.6659053 1.80902348 10 4 C9.17991455 5.72452393 9.17991455 5.72452393 8.34326172 7.48388672 C2.87280919 19.00155463 -2.52338037 30.55171559 -7.875 42.125 C-8.6997809 43.90694219 -9.52465293 45.6888422 -10.34960938 47.47070312 C-12.05471051 51.15381017 -13.75942906 54.83709391 -15.46386719 58.52050781 C-19.08044297 66.33539473 -22.70186298 74.14803595 -26.32312012 81.96075439 C-27.50496294 84.51070807 -28.68659826 87.06075779 -29.86816406 89.61083984 C-34.25157646 99.0710699 -38.63674993 108.53047846 -43.02572632 117.98812866 C-45.0181876 122.28246411 -47.00835999 126.5778334 -48.99365234 130.87548828 C-49.77695092 132.57066912 -50.56031654 134.26581899 -51.34375 135.9609375 C-51.72906891 136.79468903 -52.11438782 137.62844055 -52.51138306 138.48745728 C-54.81951356 143.47375718 -57.15145915 148.44807492 -59.50276184 153.41415405 C-75.95444215 188.17780918 -88.49016001 222.58537518 -88.375 261.5 C-88.37412384 262.23401031 -88.37324768 262.96802063 -88.37234497 263.72427368 C-88.22188976 302.26735904 -75.99624687 342.83459936 -50 372 C-48.90558594 373.27423828 -48.90558594 373.27423828 -47.7890625 374.57421875 C-25.99672984 399.5398209 6.65767686 417.42437943 40 420 C71.27141551 421.33047563 98.84562456 416.76523698 127 403 C127.66370605 402.67773438 128.32741211 402.35546875 129.01123047 402.0234375 C150.77491238 391.31838226 171.78174032 374.93164766 187 356 C187.82886719 354.98550781 188.65773438 353.97101563 189.51171875 352.92578125 C205.98228423 332.54323767 217.26291476 310.15593099 227.9597168 286.34033203 C232.8357332 275.49302625 237.88155894 264.73482569 243 254 C248.95041182 241.5111605 254.78058863 228.97774511 260.46807861 216.36709595 C265.83525494 204.47338256 271.37649051 192.66750471 276.97045898 180.87896729 C282.45665395 169.31504456 287.83553189 157.71201316 293 146 C296.33822957 146.61449997 299.02209492 147.34560829 302 149 C301.36596746 153.0618294 300.05368948 156.3577334 298.296875 160.06640625 C297.73540771 161.25959473 297.17394043 162.4527832 296.59545898 163.68212891 C295.98033011 164.97559741 295.36517646 166.26905413 294.75 167.5625 C294.11404782 168.91035364 293.47872193 170.25850294 292.84399414 171.60693359 C291.53680798 174.38326256 290.22737388 177.15851413 288.91650391 179.93310547 C286.06128237 185.98365607 283.24982736 192.05440961 280.4375 198.125 C279.35688542 200.45448024 278.27615631 202.78390736 277.1953125 205.11328125 C276.39915527 206.8295874 276.39915527 206.8295874 275.58691406 208.58056641 C274.03582112 211.92281375 272.48306006 215.26428037 270.9296875 218.60546875 C265.00847338 231.34420188 259.10910824 244.09272515 253.22698975 256.84954834 C246.8454959 270.6892187 240.44803311 284.52091034 233.9855957 298.32299805 C231.16890015 304.3414346 228.36686077 310.36585249 225.59765625 316.40625 C213.73277813 342.26978133 201.87316488 364.44449469 182 385 C180.97326172 386.10408203 180.97326172 386.10408203 179.92578125 387.23046875 C170.7086945 396.91130829 159.52719812 404.36312835 148 411 C146.87335938 411.65742187 145.74671875 412.31484375 144.5859375 412.9921875 C118.94728493 427.56588661 90.83911659 433.54465566 61.5625 433.5625 C60.7988916 433.56540039 60.0352832 433.56830078 59.24853516 433.57128906 C48.52225043 433.56665468 38.46332434 432.32220445 28 430 C26.65023071 429.71032349 26.65023071 429.71032349 25.27319336 429.41479492 C-4.50072684 422.74936537 -31.83462956 407.73153015 -53.57714844 386.38769531 C-54.8982573 385.09922881 -56.24883671 383.84116954 -57.6015625 382.5859375 C-74.26671189 366.76727188 -86.2960339 346.18824753 -94.31835938 324.80419922 C-94.91085344 323.2359574 -95.53835555 321.6810289 -96.171875 320.12890625 C-111.25551691 282.01370343 -107.96752352 236.3938943 -92.0625 199.1875 C-87.55372268 188.90772254 -82.71773269 178.76848314 -77.92529297 168.6184082 C-73.42225821 159.07693047 -69.02711008 149.49176344 -64.6875 139.875 C-58.89037549 127.03628776 -52.90370006 114.29502078 -46.84606934 101.57739258 C-41.28476012 89.89599078 -35.85194405 78.16511211 -30.53393555 66.37112427 C-24.80945159 53.68235445 -18.89033451 41.09035862 -12.89624023 28.52685547 C-8.40635977 19.09717335 -4.12861168 9.59337756 0 0 Z " fill="#F5FAFC" transform="translate(356,446)"/>
<path d="M0 0 C4.9723422 1.49170266 9.41845739 3.60457417 14 6 C12.56618991 10.62646867 10.71096957 14.945724 8.61328125 19.30078125 C8.2797464 20.00121048 7.94621155 20.70163971 7.60256958 21.42329407 C6.88391863 22.9324321 6.1638827 24.44091124 5.44259644 25.9487915 C-0.69267785 38.78132465 -6.71281973 51.6598939 -12.5625 64.625 C-17.93195754 76.51860452 -23.43105729 88.34434055 -29.01254272 100.13983154 C-33.89695252 110.46739142 -38.67535355 120.83716229 -43.375 131.25 C-48.84891523 143.37554885 -54.47441537 155.42283738 -60.1875 167.4375 C-65.24956857 178.08544105 -70.30823399 188.73300395 -75.25 199.4375 C-75.71108154 200.43313965 -76.17216309 201.4287793 -76.6472168 202.45458984 C-79.06369384 207.69893091 -81.43103824 212.96187837 -83.74383545 218.25260925 C-85.0112406 221.14959004 -86.28877378 224.04206483 -87.56628418 226.93460083 C-88.48278622 229.02327051 -89.3825897 231.11862316 -90.28222656 233.21459961 C-90.84357802 234.48848148 -91.40571276 235.76201857 -91.96875 237.03515625 C-92.45794922 238.1631665 -92.94714844 239.29117676 -93.45117188 240.45336914 C-95 243 -95 243 -97.01464844 243.93505859 C-100.01522463 244.03320828 -102.07615477 242.86759113 -104.75 241.5625 C-106.22726562 240.85287109 -106.22726562 240.85287109 -107.734375 240.12890625 C-108.48203125 239.75636719 -109.2296875 239.38382813 -110 239 C-109.35300536 234.85875325 -107.99115414 231.43555127 -106.25390625 227.62890625 C-105.97159653 227.00741196 -105.6892868 226.38591766 -105.39842224 225.74559021 C-104.45870799 223.6819547 -103.51085297 221.62217832 -102.5625 219.5625 C-101.8911157 218.09447436 -101.21989527 216.62637377 -100.54882812 215.15820312 C-95.09115715 203.24894464 -89.48203158 191.41231389 -83.84991455 179.58480835 C-78.60242584 168.56291378 -73.4572947 157.50239931 -68.4375 146.375 C-63.17715607 134.7152453 -57.79196703 123.12092647 -52.3125 111.5625 C-46.03032187 98.30851725 -39.82159611 85.02456255 -33.69921875 71.69580078 C-27.8796741 59.03211313 -22.02866824 46.38283836 -16.18457031 33.73046875 C-14.7690349 30.66574309 -13.35431509 27.60064345 -11.94042969 24.53515625 C-10.39123599 21.17654086 -8.83994289 17.81890413 -7.28683472 14.46209717 C-6.45480242 12.66242485 -5.62496074 10.86174027 -4.79516602 9.06103516 C-4.30459717 8.00190918 -3.81402832 6.9427832 -3.30859375 5.8515625 C-2.88376709 4.93197754 -2.45894043 4.01239258 -2.02124023 3.06494141 C-1 1 -1 1 0 0 Z " fill="#F0F2F2" transform="translate(501,518)"/>
<path d="M0 0 C0.495 1.485 0.495 1.485 1 3 C0.43152344 3.6290625 -0.13695312 4.258125 -0.72265625 4.90625 C-1.88087891 6.19015625 -1.88087891 6.19015625 -3.0625 7.5 C-3.89136719 8.41652344 -4.72023438 9.33304688 -5.57421875 10.27734375 C-7.55849914 12.50446683 -9.47017893 14.76837244 -11.375 17.0625 C-15.69639388 22.02558578 -20.82869008 25.96385567 -26 30 C-26.78503906 30.639375 -27.57007813 31.27875 -28.37890625 31.9375 C-29.07886719 32.494375 -29.77882813 33.05125 -30.5 33.625 C-31.41265625 34.35589844 -31.41265625 34.35589844 -32.34375 35.1015625 C-32.8903125 35.39804687 -33.436875 35.69453125 -34 36 C-34.99 35.67 -35.98 35.34 -37 35 C-36.22398437 34.42894531 -35.44796875 33.85789062 -34.6484375 33.26953125 C-21.73498526 23.62991197 -9.63586864 12.98994682 0 0 Z " fill="#EBEFEF" transform="translate(546,798)"/>
</svg>
